<svg width="512" height="512" viewBox="0 0 512 512" fill="none" xmlns="http://www.w3.org/2000/svg">
  <!-- Background -->
  <rect width="512" height="512" fill="#1f2937"/>
  
  <!-- Receipt shape -->
  <rect x="128" y="64" width="256" height="384" fill="white" rx="8"/>
  
  <!-- Dashed lines (receipt details) -->
  <line x1="152" y1="120" x2="360" y2="120" stroke="#9ca3af" stroke-width="3" stroke-dasharray="6 6"/>
  <line x1="152" y1="160" x2="360" y2="160" stroke="#9ca3af" stroke-width="3" stroke-dasharray="6 6"/>
  <line x1="152" y1="200" x2="360" y2="200" stroke="#9ca3af" stroke-width="3" stroke-dasharray="6 6"/>
  <line x1="152" y1="240" x2="360" y2="240" stroke="#9ca3af" stroke-width="3" stroke-dasharray="6 6"/>
  
  <!-- Warning icon -->
  <circle cx="256" cy="340" r="40" fill="#ef4444"/>
  <text x="256" y="360" font-size="48" fill="white" text-anchor="middle" font-family="Arial">!</text>
  
  <!-- Receipt tear at bottom -->
  <path d="M 128 448 L 140 460 L 152 448 L 164 460 L 176 448 L 188 460 L 200 448 L 212 460 L 224 448 L 236 460 L 248 448 L 260 460 L 272 448 L 284 460 L 296 448 L 308 460 L 320 448 L 332 460 L 344 448 L 356 460 L 368 448 L 380 460 L 384 456 L 384 448 L 128 448 Z" fill="white"/>
</svg>
